<?xml version="1.0" encoding="utf-8"?>
<svg xmlns="http://www.w3.org/2000/svg" width="500" zoomAndPan="magnify" viewBox="0 0 375 374.999991" height="500" preserveAspectRatio="none" version="1.0" xmlns:bx="https://boxy-svg.com"><defs><g/><clipPath id="80e691efbc"><path d="M 51.046875 140.496094 L 136.546875 140.496094 L 136.546875 205.746094 L 51.046875 205.746094 Z M 51.046875 140.496094 " clip-rule="nonzero"/></clipPath><bx:export><bx:file format="svg" href="#object-0"/><bx:file format="svg" path="Untitled 2.svg"/></bx:export></defs><rect x="-37.5" width="450" fill="#ffffff" y="-37.499999" height="449.999989" fill-opacity="1"/><rect x="-37.5" width="450" y="-37.499999" height="449.999989" fill-opacity="1" style="fill: none;" id="object-0"/><g fill="#ffffff" fill-opacity="1"><g transform="translate(143.093095, 197.313105)"><g><path d="M 0.984375 -17.546875 C 0.984375 -22.617188 2.707031 -26.910156 6.15625 -30.421875 C 9.613281 -33.929688 13.78125 -35.6875 18.65625 -35.6875 C 23.550781 -35.6875 27.710938 -33.9375 31.140625 -30.4375 C 34.566406 -26.9375 36.28125 -22.640625 36.28125 -17.546875 C 36.28125 -12.421875 34.59375 -8.109375 31.21875 -4.609375 C 27.851562 -1.109375 23.664062 0.640625 18.65625 0.640625 C 13.53125 0.640625 9.300781 -1.09375 5.96875 -4.5625 C 2.644531 -8.03125 0.984375 -12.359375 0.984375 -17.546875 Z M 9.59375 -17.546875 C 9.59375 -15.703125 9.875 -14.019531 10.4375 -12.5 C 11.007812 -10.988281 12.003906 -9.707031 13.421875 -8.65625 C 14.835938 -7.613281 16.582031 -7.09375 18.65625 -7.09375 C 21.625 -7.09375 23.863281 -8.113281 25.375 -10.15625 C 26.894531 -12.195312 27.65625 -14.660156 27.65625 -17.546875 C 27.65625 -20.410156 26.882812 -22.867188 25.34375 -24.921875 C 23.800781 -26.972656 21.570312 -28 18.65625 -28 C 15.757812 -28 13.523438 -26.972656 11.953125 -24.921875 C 10.378906 -22.867188 9.59375 -20.410156 9.59375 -17.546875 Z M 9.59375 -17.546875 "/></g></g></g><g fill="#ffffff" fill-opacity="1"><g transform="translate(188.627797, 197.313105)"><g><path d="M 10.53125 -35.046875 L 10.53125 -7.015625 L 22.609375 -7.015625 L 22.609375 0 L 2.546875 0 L 2.546875 -35.046875 Z M 10.53125 -35.046875 "/></g></g></g><g fill="#ffffff" fill-opacity="1"><g transform="translate(220.911083, 197.313105)"><g><path d="M 2.546875 -35.046875 L 12.703125 -35.046875 C 17.578125 -35.046875 21.738281 -33.378906 25.1875 -30.046875 C 28.644531 -26.722656 30.375 -22.554688 30.375 -17.546875 C 30.375 -12.503906 28.648438 -8.316406 25.203125 -4.984375 C 21.765625 -1.660156 17.597656 0 12.703125 0 L 2.546875 0 Z M 10.53125 -7.140625 L 11.765625 -7.140625 C 14.679688 -7.140625 17.066406 -8.125 18.921875 -10.09375 C 20.773438 -12.0625 21.71875 -14.53125 21.75 -17.5 C 21.75 -20.476562 20.820312 -22.957031 18.96875 -24.9375 C 17.113281 -26.914062 14.710938 -27.90625 11.765625 -27.90625 L 10.53125 -27.90625 Z M 10.53125 -7.140625 "/></g></g></g><g fill="#ffffff" fill-opacity="1"><g transform="translate(260.542108, 197.313105)"><g><path d="M 0.984375 -17.546875 C 0.984375 -22.617188 2.707031 -26.910156 6.15625 -30.421875 C 9.613281 -33.929688 13.78125 -35.6875 18.65625 -35.6875 C 23.550781 -35.6875 27.710938 -33.9375 31.140625 -30.4375 C 34.566406 -26.9375 36.28125 -22.640625 36.28125 -17.546875 C 36.28125 -12.421875 34.59375 -8.109375 31.21875 -4.609375 C 27.851562 -1.109375 23.664062 0.640625 18.65625 0.640625 C 13.53125 0.640625 9.300781 -1.09375 5.96875 -4.5625 C 2.644531 -8.03125 0.984375 -12.359375 0.984375 -17.546875 Z M 9.59375 -17.546875 C 9.59375 -15.703125 9.875 -14.019531 10.4375 -12.5 C 11.007812 -10.988281 12.003906 -9.707031 13.421875 -8.65625 C 14.835938 -7.613281 16.582031 -7.09375 18.65625 -7.09375 C 21.625 -7.09375 23.863281 -8.113281 25.375 -10.15625 C 26.894531 -12.195312 27.65625 -14.660156 27.65625 -17.546875 C 27.65625 -20.410156 26.882812 -22.867188 25.34375 -24.921875 C 23.800781 -26.972656 21.570312 -28 18.65625 -28 C 15.757812 -28 13.523438 -26.972656 11.953125 -24.921875 C 10.378906 -22.867188 9.59375 -20.410156 9.59375 -17.546875 Z M 9.59375 -17.546875 "/></g></g></g><g fill="#ffffff" fill-opacity="1"><g transform="translate(306.07681, 197.313105)"><g><path d="M 2.546875 -35.046875 L 15.078125 -35.046875 C 18.453125 -35.046875 21.203125 -34.144531 23.328125 -32.34375 C 25.453125 -30.550781 26.515625 -27.984375 26.515625 -24.640625 C 26.515625 -22.066406 25.867188 -19.90625 24.578125 -18.15625 C 23.285156 -16.414062 21.535156 -15.191406 19.328125 -14.484375 L 31.390625 0 L 21.234375 0 L 10.53125 -13.84375 L 10.53125 0 L 2.546875 0 Z M 10.53125 -19.5 L 11.46875 -19.5 C 12.207031 -19.5 12.832031 -19.507812 13.34375 -19.53125 C 13.851562 -19.5625 14.429688 -19.660156 15.078125 -19.828125 C 15.734375 -20.003906 16.257812 -20.25 16.65625 -20.5625 C 17.050781 -20.875 17.390625 -21.328125 17.671875 -21.921875 C 17.953125 -22.515625 18.09375 -23.234375 18.09375 -24.078125 C 18.09375 -24.929688 17.953125 -25.65625 17.671875 -26.25 C 17.390625 -26.84375 17.050781 -27.296875 16.65625 -27.609375 C 16.257812 -27.921875 15.734375 -28.160156 15.078125 -28.328125 C 14.429688 -28.503906 13.851562 -28.601562 13.34375 -28.625 C 12.832031 -28.65625 12.207031 -28.671875 11.46875 -28.671875 L 10.53125 -28.671875 Z M 10.53125 -19.5 "/></g></g></g><g clip-path="url(#80e691efbc)"><path fill="#eeba2b" d="M 67.121094 184.183594 L 69.109375 184.183594 C 69.964844 184.183594 70.644531 184.90625 70.644531 185.71875 C 70.644531 186.578125 69.921875 187.253906 69.109375 187.253906 L 67.121094 187.253906 C 66.261719 187.253906 65.585938 186.53125 65.585938 185.71875 C 65.539062 184.90625 66.261719 184.183594 67.121094 184.183594 Z M 109.476562 205.992188 C 109.207031 205.992188 108.980469 205.992188 108.707031 205.992188 C 108.664062 205.992188 108.617188 205.992188 108.574219 205.992188 L 90.058594 205.992188 C 89.203125 205.992188 88.523438 205.269531 88.523438 204.457031 C 88.523438 203.601562 89.246094 202.921875 90.058594 202.921875 L 97.828125 202.921875 C 98.683594 202.921875 99.363281 202.199219 99.363281 201.386719 C 99.363281 200.53125 98.683594 199.851562 97.828125 199.851562 L 81.933594 199.851562 C 81.074219 199.851562 80.398438 199.128906 80.398438 198.316406 C 80.398438 197.460938 81.117188 196.78125 81.933594 196.78125 L 85.679688 196.78125 C 86.539062 196.78125 87.214844 196.058594 87.214844 195.246094 C 87.214844 194.386719 86.492188 193.710938 85.679688 193.710938 L 76.695312 193.710938 C 75.835938 193.710938 75.160156 192.988281 75.160156 192.175781 C 75.160156 191.316406 75.882812 190.640625 76.695312 190.640625 L 80.894531 190.640625 C 81.75 190.640625 82.429688 189.917969 82.429688 189.105469 C 82.429688 188.246094 81.707031 187.570312 80.894531 187.570312 L 74.390625 187.570312 C 73.53125 187.570312 72.855469 186.847656 72.855469 186.035156 C 72.855469 185.175781 73.578125 184.5 74.390625 184.5 L 86.492188 184.5 C 87.351562 184.5 88.027344 183.777344 88.027344 182.964844 C 88.027344 182.105469 87.304688 181.429688 86.492188 181.429688 L 70.824219 181.429688 C 69.964844 181.429688 69.289062 180.707031 69.289062 179.894531 C 69.289062 179.035156 70.011719 178.359375 70.824219 178.359375 L 76.152344 178.359375 C 77.011719 178.359375 77.6875 177.636719 77.6875 176.824219 C 77.6875 175.964844 77.011719 175.289062 76.152344 175.289062 L 70.507812 175.289062 C 69.648438 175.289062 68.972656 174.566406 68.972656 173.753906 C 68.972656 172.894531 69.695312 172.21875 70.507812 172.21875 L 76.289062 172.21875 C 77.144531 172.21875 77.824219 171.496094 77.824219 170.683594 C 77.824219 169.824219 77.101562 169.148438 76.289062 169.148438 L 73.488281 169.148438 C 72.628906 169.148438 71.953125 168.425781 71.953125 167.613281 C 71.953125 166.753906 72.675781 166.078125 73.488281 166.078125 L 82.5625 166.078125 C 83.421875 166.078125 84.097656 165.355469 84.097656 164.539062 C 84.097656 163.683594 83.375 163.003906 82.5625 163.003906 L 70.328125 163.003906 C 69.46875 163.003906 68.792969 162.285156 68.792969 161.46875 C 68.792969 160.613281 69.515625 159.933594 70.328125 159.933594 L 80.441406 159.933594 C 81.300781 159.933594 81.976562 159.210938 81.976562 158.398438 C 81.976562 157.632812 81.433594 157 80.667969 156.863281 L 79.992188 156.863281 C 79.132812 156.863281 78.453125 156.140625 78.453125 155.328125 C 78.453125 154.472656 79.175781 153.792969 79.992188 153.792969 L 87.304688 153.792969 C 87.984375 153.613281 88.480469 153.027344 88.480469 152.304688 C 88.480469 151.535156 87.9375 150.902344 87.167969 150.769531 L 81.527344 150.769531 C 80.667969 150.769531 79.992188 150.046875 79.992188 149.234375 C 79.992188 148.375 80.710938 147.699219 81.527344 147.699219 L 92.273438 147.699219 C 93.128906 147.699219 93.808594 146.976562 93.808594 146.164062 C 93.808594 145.441406 93.3125 144.851562 92.632812 144.671875 L 92.679688 144.628906 L 86.175781 144.628906 C 85.320312 144.628906 84.640625 143.90625 84.640625 143.09375 C 84.640625 142.234375 85.363281 141.558594 86.175781 141.558594 L 100.714844 141.558594 C 103.472656 140.878906 106.40625 140.519531 109.386719 140.519531 C 118.417969 140.519531 125.460938 142.414062 132.28125 147.472656 C 132.910156 147.925781 133.273438 148.601562 133.363281 149.367188 C 133.453125 150.136719 133.226562 150.859375 132.730469 151.492188 L 127.402344 157.902344 C 126.453125 159.03125 124.785156 159.257812 123.609375 158.355469 C 119.230469 155.105469 114.804688 153.476562 108.933594 153.476562 C 98.503906 153.476562 90.554688 162.78125 90.554688 173.480469 C 90.554688 185.132812 98.234375 194.027344 109.972656 194.027344 C 114.578125 194.027344 118.550781 193.035156 121.894531 191.046875 C 122.753906 190.550781 123.25 189.648438 123.25 188.652344 L 123.25 182.964844 C 123.25 181.429688 121.984375 180.164062 120.449219 180.164062 L 111.824219 180.164062 C 110.289062 180.164062 109.023438 178.898438 109.023438 177.363281 L 109.023438 170.773438 C 109.023438 169.238281 110.289062 167.972656 111.824219 167.972656 L 134.085938 167.972656 C 135.621094 167.972656 136.886719 169.238281 136.886719 170.773438 L 136.886719 194.480469 C 136.886719 195.335938 136.523438 196.105469 135.847656 196.644531 C 132.777344 199.085938 129.210938 201.207031 125.144531 202.96875 C 120.539062 205 115.347656 205.992188 109.476562 205.992188 Z M 73.941406 202.878906 L 85.859375 202.878906 C 86.71875 202.878906 87.394531 203.601562 87.394531 204.414062 C 87.394531 205.269531 86.671875 205.949219 85.859375 205.949219 L 73.941406 205.949219 C 73.082031 205.949219 72.402344 205.226562 72.402344 204.414062 C 72.359375 203.554688 73.082031 202.878906 73.941406 202.878906 Z M 57.277344 190.414062 L 60.574219 190.414062 C 61.429688 190.414062 62.109375 191.136719 62.109375 191.949219 C 62.109375 192.808594 61.386719 193.484375 60.574219 193.484375 L 57.277344 193.484375 C 56.417969 193.484375 55.742188 192.761719 55.742188 191.949219 C 55.742188 191.09375 56.417969 190.414062 57.277344 190.414062 Z M 66.039062 190.414062 L 72.179688 190.414062 C 73.035156 190.414062 73.714844 191.136719 73.714844 191.949219 C 73.714844 192.808594 72.992188 193.484375 72.179688 193.484375 L 66.039062 193.484375 C 65.179688 193.484375 64.503906 192.761719 64.503906 191.949219 C 64.503906 191.09375 65.179688 190.414062 66.039062 190.414062 Z M 62.0625 165.535156 L 68.070312 165.535156 C 68.925781 165.535156 69.605469 166.257812 69.605469 167.070312 C 69.605469 167.925781 68.882812 168.605469 68.070312 168.605469 L 62.0625 168.605469 C 61.207031 168.605469 60.527344 167.882812 60.527344 167.070312 C 60.527344 166.210938 61.207031 165.535156 62.0625 165.535156 Z M 52.582031 171.71875 L 66.171875 171.71875 C 67.03125 171.71875 67.707031 172.441406 67.707031 173.257812 C 67.707031 174.113281 67.03125 174.792969 66.171875 174.792969 L 52.582031 174.792969 C 51.722656 174.792969 51.046875 174.070312 51.046875 173.257812 C 51.046875 172.441406 51.769531 171.71875 52.582031 171.71875 Z M 71.230469 146.929688 L 77.101562 146.929688 C 77.957031 146.929688 78.636719 147.652344 78.636719 148.464844 C 78.636719 149.324219 77.914062 150 77.101562 150 L 71.230469 150 C 70.371094 150 69.695312 149.277344 69.695312 148.464844 C 69.695312 147.652344 70.371094 146.929688 71.230469 146.929688 Z M 79.992188 140.746094 L 82.292969 140.746094 C 83.152344 140.746094 83.828125 141.464844 83.828125 142.28125 C 83.828125 143.136719 83.105469 143.816406 82.292969 143.816406 L 79.992188 143.816406 C 79.132812 143.816406 78.453125 143.09375 78.453125 142.28125 C 78.453125 141.421875 79.132812 140.746094 79.992188 140.746094 Z M 67.84375 153.070312 L 75.113281 153.070312 C 75.972656 153.070312 76.648438 153.792969 76.648438 154.605469 C 76.648438 155.464844 75.925781 156.140625 75.113281 156.140625 L 67.84375 156.140625 C 66.984375 156.140625 66.308594 155.417969 66.308594 154.605469 C 66.261719 153.792969 66.984375 153.070312 67.84375 153.070312 Z M 67.84375 153.070312 " fill-opacity="1" fill-rule="evenodd"/></g></svg>